<?xml version="1.0" encoding="UTF-8" standalone="no"?>
<svg
   width="70.476562mm"
   height="8.17873mm"
   viewBox="0 0 70.476562 8.1787302"
   version="1.1"
   id="svg1"
   xmlns="http://www.w3.org/2000/svg"
   xmlns:svg="http://www.w3.org/2000/svg">
  <defs
     id="defs1" />
  <g
     id="layer1"
     transform="translate(-96.110937,-137.56438)">
    <g
       id="text1-3"
       style="font-size:8.46667px;line-height:1;font-family:Cantarell;-inkscape-font-specification:Cantarell;stroke-width:0.264583"
       aria-label="projects.ejmastnak"
       transform="translate(0,-6.879167)">
      <path
         style="fill:#60a5fa"
         d="m 97.905871,150.78501 c 1.134534,0 1.896534,-0.88053 1.896534,-2.20133 0,-1.22767 -0.702734,-2.04893 -1.752601,-2.04893 -0.5842,0 -1.134534,0.254 -1.481667,0.69426 l 0.1524,0.42334 c 0.296333,-0.3302 0.719667,-0.52494 1.151467,-0.52494 0.762,0 1.253067,0.6096 1.253067,1.54094 0,0.9144 -0.448733,1.524 -1.185334,1.524 -0.6096,0 -1.1176,-0.39794 -1.261533,-0.99907 l -0.2794,0.46567 c 0.186266,0.7112 0.770466,1.12606 1.507067,1.12606 z m -1.794934,1.75261 h 0.677333 v -5.44407 l -0.2032,-0.47414 h -0.474133 z m 4.834463,-1.83727 h 0.67733 v -3.13267 l -0.11853,-0.94827 h -0.5588 z m 0.52493,-2.65007 c 0.23707,-0.51647 0.72814,-0.82973 1.28694,-0.82973 0.16086,0 0.31326,0.0254 0.44873,0.0762 l 0.16933,-0.62654 c -0.1778,-0.0593 -0.3556,-0.0931 -0.54186,-0.0931 -0.55034,0 -1.05834,0.29633 -1.36314,0.7874 z m 4.30954,2.73473 c 1.20227,0 2.01507,-0.87206 2.01507,-2.17593 0,-1.26153 -0.75353,-2.07433 -1.91347,-2.07433 -1.20226,0 -2.0066,0.8636 -2.0066,2.16746 0,1.26154 0.74507,2.0828 1.905,2.0828 z m 0.0931,-0.59266 c -0.7874,0 -1.3208,-0.635 -1.3208,-1.5748 0,-0.90594 0.4826,-1.49014 1.23613,-1.49014 0.7874,0 1.32927,0.64347 1.32927,1.5748 0,0.89747 -0.49107,1.49014 -1.2446,1.49014 z m 2.52306,2.42993 c 0.77047,-0.33866 1.2192,-0.98213 1.2192,-1.7272 v -4.27567 h -0.67733 v 4.37727 c 0,0.47413 -0.3048,0.95674 -0.762,1.2192 z m 0.88053,-6.9596 c 0.3048,0 0.4826,-0.1778 0.4826,-0.4826 0,-0.3048 -0.1778,-0.4826 -0.4826,-0.4826 -0.3048,0 -0.4826,0.1778 -0.4826,0.4826 0,0.3048 0.1778,0.4826 0.4826,0.4826 z m 3.58141,5.12233 c 0.46566,0 0.97366,-0.11006 1.33773,-0.3048 l -0.1524,-0.49106 c -0.31327,0.1524 -0.7112,0.24553 -1.0668,0.24553 -0.95673,0 -1.524,-0.635 -1.524,-1.69333 0,-0.92287 0.41487,-1.43087 1.15993,-1.43087 0.69427,0 1.10067,0.44873 1.10067,1.22767 h -2.37913 v 0.508 h 2.98026 c 0.0169,-0.127 0.0339,-0.42334 0.0339,-0.5842 0,-1.02447 -0.67733,-1.7272 -1.68487,-1.7272 -1.13453,0 -1.905,0.889 -1.905,2.14206 0,1.30387 0.80434,2.1082 2.09974,2.1082 z m 4.23333,0 c 0.49107,0 0.99907,-0.11853 1.33773,-0.32173 l -0.1524,-0.49107 c -0.33866,0.16087 -0.7112,0.254 -1.02446,0.254 -0.84667,0 -1.32927,-0.59266 -1.32927,-1.58326 0,-0.98214 0.47413,-1.51554 1.3208,-1.51554 0.32173,0 0.6858,0.0762 1.02447,0.2286 l 0.16086,-0.55033 c -0.37253,-0.1778 -0.77046,-0.27093 -1.17686,-0.27093 -1.21074,0 -2.02354,0.89746 -2.02354,2.24366 0,1.26154 0.69427,2.0066 1.86267,2.0066 z m 3.75074,-0.0423 c 0.2794,0 0.5588,-0.0677 0.75354,-0.1524 l -0.1524,-0.49107 c -0.127,0.0593 -0.31327,0.0931 -0.4572,0.0931 -0.42334,0 -0.70274,-0.27094 -0.70274,-0.67734 v -4.0894 h -0.67733 v 4.18254 c 0,0.67733 0.49107,1.13453 1.23613,1.13453 z m -1.78646,-3.556 h 2.34526 v -0.56727 h -2.34526 z m 4.68207,3.59833 c 1.00753,0 1.6256,-0.47413 1.6256,-1.22766 0,-1.4986 -2.4384,-0.9398 -2.4384,-1.86267 0,-0.3556 0.381,-0.5842 0.9906,-0.5842 0.34713,0 0.75353,0.0762 1.10066,0.19473 l 0.16087,-0.55033 c -0.34713,-0.14393 -0.762,-0.22013 -1.1938,-0.22013 -1.05833,0 -1.73567,0.46566 -1.73567,1.23613 0,1.46473 2.42994,0.85513 2.42994,1.8542 0,0.37253 -0.3302,0.5842 -0.889,0.5842 -0.4318,0 -1.00754,-0.11853 -1.43934,-0.3048 l -0.16086,0.55033 c 0.46566,0.21167 1.03293,0.3302 1.5494,0.3302 z m 3.0734,0 c 0.32174,0 0.54187,-0.2286 0.54187,-0.54186 0,-0.31327 -0.22013,-0.54187 -0.54187,-0.54187 -0.32173,0 -0.54186,0.2286 -0.54186,0.54187 0,0.31326 0.22013,0.54186 0.54186,0.54186 z"
         id="path6" />
      <path
         style="fill:#3b82f6"
         d="m 130.43483,150.78501 c 0.46567,0 0.97367,-0.11006 1.33774,-0.3048 l -0.1524,-0.49106 c -0.31327,0.1524 -0.7112,0.24553 -1.0668,0.24553 -0.95674,0 -1.524,-0.635 -1.524,-1.69333 0,-0.92287 0.41486,-1.43087 1.15993,-1.43087 0.69427,0 1.10067,0.44873 1.10067,1.22767 h -2.37914 v 0.508 h 2.98027 c 0.0169,-0.127 0.0339,-0.42334 0.0339,-0.5842 0,-1.02447 -0.67734,-1.7272 -1.68487,-1.7272 -1.13453,0 -1.905,0.889 -1.905,2.14206 0,1.30387 0.80433,2.1082 2.09973,2.1082 z m 2.09127,1.83727 c 0.77046,-0.33866 1.2192,-0.98213 1.2192,-1.7272 v -4.27567 h -0.67734 v 4.37727 c 0,0.47413 -0.3048,0.95674 -0.762,1.2192 z m 0.88053,-6.9596 c 0.3048,0 0.4826,-0.1778 0.4826,-0.4826 0,-0.3048 -0.1778,-0.4826 -0.4826,-0.4826 -0.3048,0 -0.4826,0.1778 -0.4826,0.4826 0,0.3048 0.1778,0.4826 0.4826,0.4826 z m 7.23054,5.03767 h 0.67734 v -2.67547 c 0,-0.90593 -0.59267,-1.49013 -1.49861,-1.49013 -0.5842,0 -1.15993,0.254 -1.58326,0.70273 l 0.16086,0.4318 c 0.3302,-0.34713 0.77047,-0.54187 1.23614,-0.54187 0.65193,0 1.00753,0.37254 1.00753,1.03294 z m -5.4864,0 h 0.67733 v -3.6068 l -0.2032,-0.47414 h -0.47413 z m 2.7432,0 h 0.67733 v -2.67547 c 0,-0.90593 -0.59266,-1.49013 -1.49013,-1.49013 -0.59267,0 -1.1684,0.254 -1.59173,0.70273 l 0.16086,0.4318 c 0.3302,-0.34713 0.77047,-0.54187 1.23614,-0.54187 0.65193,0 1.00753,0.37254 1.00753,1.03294 z m 7.28133,0 h 0.47414 v -2.65007 c 0,-0.97367 -0.57574,-1.51553 -1.64254,-1.51553 -0.5334,0 -1.10913,0.14393 -1.5494,0.38946 l 0.16933,0.49954 c 0.42334,-0.18627 0.84667,-0.2794 1.24461,-0.2794 0.72813,0 1.10066,0.3048 1.10066,0.90593 v 2.17593 z m -1.4478,0.0847 c 0.97367,0 1.71027,-0.6096 1.8288,-1.51553 l -0.24553,-0.11853 c -0.127,0.62653 -0.6858,1.0414 -1.38853,1.0414 -0.54187,0 -0.89747,-0.27094 -0.89747,-0.67734 0,-0.51646 0.60113,-0.72813 2.04893,-0.72813 v -0.46567 c -1.905,0 -2.72627,0.381 -2.72627,1.27 0,0.72814 0.54187,1.1938 1.38007,1.1938 z m 4.4958,0 c 1.00753,0 1.6256,-0.47413 1.6256,-1.22766 0,-1.4986 -2.4384,-0.9398 -2.4384,-1.86267 0,-0.3556 0.381,-0.5842 0.9906,-0.5842 0.34713,0 0.75353,0.0762 1.10067,0.19473 l 0.16086,-0.55033 c -0.34713,-0.14393 -0.762,-0.22013 -1.1938,-0.22013 -1.05833,0 -1.73567,0.46566 -1.73567,1.23613 0,1.46473 2.42994,0.85513 2.42994,1.8542 0,0.37253 -0.3302,0.5842 -0.889,0.5842 -0.4318,0 -1.00753,-0.11853 -1.43933,-0.3048 l -0.16087,0.55033 c 0.46567,0.21167 1.03293,0.3302 1.5494,0.3302 z m 4.0894,-0.0423 c 0.27941,0 0.55881,-0.0677 0.75354,-0.1524 l -0.1524,-0.49107 c -0.127,0.0593 -0.31327,0.0931 -0.4572,0.0931 -0.42334,0 -0.70274,-0.27094 -0.70274,-0.67734 v -4.0894 h -0.67733 v 4.18254 c 0,0.67733 0.49107,1.13453 1.23613,1.13453 z m -1.78646,-3.556 h 2.34527 v -0.56727 h -2.34527 z m 6.23147,3.51367 h 0.67733 v -2.67547 c 0,-0.90593 -0.60113,-1.49013 -1.51553,-1.49013 -0.59267,0 -1.17687,0.254 -1.60867,0.70273 l 0.16087,0.4318 c 0.33866,-0.34713 0.7874,-0.54187 1.26153,-0.54187 0.6604,0 1.02447,0.37254 1.02447,1.03294 z m -2.78554,0 h 0.67734 v -3.6068 l -0.2032,-0.47414 h -0.47414 z m 7.32367,0 h 0.47413 v -2.65007 c 0,-0.97367 -0.57573,-1.51553 -1.64253,-1.51553 -0.5334,0 -1.10914,0.14393 -1.5494,0.38946 l 0.16933,0.49954 c 0.42333,-0.18627 0.84667,-0.2794 1.2446,-0.2794 0.72814,0 1.10067,0.3048 1.10067,0.90593 v 2.17593 z m -1.4478,0.0847 c 0.97367,0 1.71027,-0.6096 1.8288,-1.51553 l -0.24553,-0.11853 c -0.127,0.62653 -0.6858,1.0414 -1.38854,1.0414 -0.54186,0 -0.89747,-0.27094 -0.89747,-0.67734 0,-0.51646 0.60114,-0.72813 2.04894,-0.72813 v -0.46567 c -1.905,0 -2.72627,0.381 -2.72627,1.27 0,0.72814 0.54187,1.1938 1.38007,1.1938 z m 5.84199,-0.0847 h 0.89747 l -2.12514,-2.42147 -0.0508,0.41487 1.98967,-2.07434 h -0.80433 l -1.82881,1.905 z m -2.58234,0 h 0.67734 v -6.25687 h -0.67734 z"
         id="path7" />
    </g>
  </g>
</svg>
