<?xml version="1.0" encoding="UTF-8" standalone="no"?>
<svg
   class="h-6"
   viewBox="0 0 218.61133 35.603165"
   version="1.1"
   id="svg5"
   width="218.61133"
   height="35.603165"
   xmlns="http://www.w3.org/2000/svg"
   xmlns:svg="http://www.w3.org/2000/svg">
  <defs
     id="defs2" />
  <g
     id="text1-6-75"
     style="font-size:37.7953px;line-height:1;font-family:'Source Code Pro';-inkscape-font-specification:'Source Code Pro';text-align:center;letter-spacing:-3px;text-anchor:middle;fill:#5e81ac"
     aria-label="eliprojects"
     transform="translate(-12.251462,-85.875251)">
    <path
       style="font-weight:600;-inkscape-font-specification:'Source Code Pro Semi-Bold';letter-spacing:-4px"
       d="m 21.964854,98.045335 c 2.645671,0 4.308665,1.511812 4.611027,4.535435 h -9.864573 c 0.566929,-2.985828 2.683466,-4.535435 5.253546,-4.535435 z m 0.453544,16.100795 c 2.721262,0 5.291342,-0.90708 7.256698,-2.19212 l -1.474017,-2.72127 c -1.662993,0.94489 -3.250396,1.54961 -5.215751,1.54961 -3.439373,0 -5.896067,-1.66299 -6.387406,-5.10236 h 13.644103 c 0.07559,-0.49134 0.188977,-1.32284 0.188977,-2.19213 0,-5.140163 -3.06142,-8.806307 -8.579533,-8.806307 -4.98898,0 -9.600007,3.666144 -9.600007,9.713397 0,6.16063 4.497641,9.75118 10.166936,9.75118 z m 21.360661,0 c 2.154332,0 3.439372,-0.37795 5.253547,-1.05827 l -1.020474,-3.2126 c -1.171654,0.49134 -2.192127,0.71811 -3.174805,0.71811 -1.851969,0 -3.325986,-0.94488 -3.325986,-3.43937 V 87.009107 H 30.966452 v 3.439373 h 6.19843 v 16.47875 c 0,4.57323 2.305513,7.2189 6.614177,7.2189 z"
       id="path6" />
    <path
       style="font-weight:600;-inkscape-font-specification:'Source Code Pro Semi-Bold';letter-spacing:0px"
       d="m 58.525542,113.69259 h 4.34646 V 95.135097 H 50.475144 v 3.439372 h 8.050398 z m 1.85197,-21.95907 c 1.776379,0 3.099215,-1.133859 3.099215,-2.910238 0,-1.738584 -1.322836,-2.948034 -3.099215,-2.948034 -1.776379,0 -3.099215,1.20945 -3.099215,2.948034 0,1.776379 1.322836,2.910238 3.099215,2.910238 z"
       id="path7" />
    <path
       style="font-weight:600;-inkscape-font-specification:'Source Code Pro Semi-Bold';letter-spacing:0px;fill:#81a1c1"
       d="m 73.076749,121.02488 h 4.384255 v -5.82048 l -0.226772,-3.25039 h 0.113386 c 1.474017,1.39842 3.363782,2.19212 5.06457,2.19212 4.270869,0 8.239376,-3.66614 8.239376,-10.01575 0,-5.744888 -2.759057,-9.448827 -7.596855,-9.448827 -2.116537,0 -4.34646,1.096064 -5.933862,2.570081 h -0.113386 l -0.340158,-2.116537 h -3.590554 z m 8.428352,-10.4693 c -1.133859,0 -2.683466,-0.45354 -4.044097,-1.70079 v -8.35276 c 1.511812,-1.549608 2.985829,-2.229923 4.384255,-2.229923 3.023624,0 4.308664,2.192123 4.308664,5.896063 0,4.19528 -2.003151,6.38741 -4.648822,6.38741 z"
       id="path8" />
    <path
       style="font-weight:600;-inkscape-font-specification:'Source Code Pro Semi-Bold';fill:#81a1c1"
       d="m 97.568117,113.69259 h 4.384253 v -10.24253 c 1.88977,-3.590551 4.38426,-4.913386 6.91654,-4.913386 1.39843,0 2.15433,0.188976 3.36378,0.566929 l 0.90709,-3.666144 c -1.09606,-0.529134 -2.07874,-0.755906 -3.59055,-0.755906 -3.2126,0 -6.00946,1.662993 -7.89922,4.648822 h -0.11339 l -0.37795,-4.195278 h -3.590553 z m 26.102393,0.45354 c 4.87559,0 9.33544,-3.55276 9.33544,-9.71339 0,-6.198429 -4.45985,-9.751187 -9.33544,-9.751187 -4.87559,0 -9.33544,3.552758 -9.33544,9.751187 0,6.16063 4.45985,9.71339 9.33544,9.71339 z m 0,-3.55276 c -3.02362,0 -4.8378,-2.45669 -4.8378,-6.16063 0,-3.74173 1.81418,-6.198429 4.8378,-6.198429 3.02362,0 4.8378,2.456699 4.8378,6.198429 0,3.70394 -1.81418,6.16063 -4.8378,6.16063 z m 15.70869,10.88505 c 6.34961,0 8.20158,-3.59055 8.20158,-8.12599 V 95.135097 h -12.39685 v 3.439372 h 8.05039 V 113.5792 c 0,2.91024 -0.90708,4.45985 -4.08189,4.45985 -1.20945,0 -2.57008,-0.30236 -3.9685,-0.94488 l -1.32284,3.13701 c 1.51181,0.71811 3.36378,1.24724 5.51811,1.24724 z m 5.70709,-29.7449 c 1.77638,0 3.09922,-1.133859 3.09922,-2.910238 0,-1.738584 -1.32284,-2.948034 -3.09922,-2.948034 -1.77637,0 -3.09921,1.20945 -3.09921,2.948034 0,1.776379 1.32284,2.910238 3.09921,2.910238 z m 18.61892,6.311815 c 2.64567,0 4.30867,1.511812 4.61103,4.535435 h -9.86458 c 0.56693,-2.985828 2.68347,-4.535435 5.25355,-4.535435 z m 0.45354,16.100795 c 2.72127,0 5.29135,-0.90708 7.2567,-2.19212 l -1.47401,-2.72127 c -1.663,0.94489 -3.2504,1.54961 -5.21576,1.54961 -3.43937,0 -5.89606,-1.66299 -6.3874,-5.10236 h 13.6441 c 0.0756,-0.49134 0.18898,-1.32284 0.18898,-2.19213 0,-5.140163 -3.06142,-8.806307 -8.57953,-8.806307 -4.98898,0 -9.60001,3.666144 -9.60001,9.713397 0,6.16063 4.49764,9.75118 10.16693,9.75118 z m 20.20634,0 c 2.64567,0 5.36693,-0.94488 7.52126,-2.79685 l -1.81417,-2.79685 c -1.43622,1.09606 -3.17481,2.04094 -5.29134,2.04094 -3.66615,0 -6.16064,-2.45669 -6.16064,-6.16063 0,-3.74173 2.57008,-6.198429 6.27402,-6.198429 1.663,0 3.13701,0.604725 4.57323,1.776379 l 2.07875,-2.721261 c -1.54961,-1.474017 -3.89292,-2.607876 -6.87875,-2.607876 -5.66929,0 -10.54489,3.552758 -10.54489,9.751187 0,6.16063 4.42205,9.71339 10.24253,9.71339 z m 21.45358,0 c 2.4189,0 4.27087,-0.49134 5.93386,-1.05827 l -0.8315,-3.1748 c -1.20945,0.45354 -2.49449,0.7559 -4.04409,0.7559 -3.17481,0 -4.30867,-1.39842 -4.30867,-4.45984 v -7.634651 h 8.46615 v -3.439372 h -8.46615 v -5.820476 h -3.59055 l -0.56693,5.820476 -5.14016,0.188976 v 3.250396 h 4.95118 v 7.634651 c 0,4.76221 1.92756,7.93701 7.59686,7.93701 z m 16.3512,0 c 5.6315,0 8.69292,-2.57008 8.69292,-5.74488 0,-2.94804 -1.54961,-4.53544 -7.48347,-5.85827 -3.43938,-0.75591 -4.8378,-1.20945 -4.8378,-2.53229 0,-1.133859 0.98268,-2.040946 3.43937,-2.040946 2.19213,0 4.30866,0.680316 6.12284,1.85197 l 2.00315,-2.683466 c -1.88976,-1.247245 -4.68662,-2.456695 -7.74804,-2.456695 -5.21575,0 -8.16378,2.305513 -8.16378,5.555907 0,2.79685 2.22992,4.57323 7.18111,5.59371 4.30866,0.90708 5.14016,1.5874 5.14016,2.79685 0,1.24724 -1.20945,2.22992 -3.77953,2.22992 -3.02363,0 -5.55591,-0.86929 -7.78584,-2.34331 l -1.88976,2.75906 c 2.30551,1.54961 5.6315,2.87244 9.10867,2.87244 z"
       id="path9" />
  </g>
</svg>
